{"title":"Angie Tribeca S02E09 1080p WEB-DL HEVC DD5.1 x265","uid":15496002,"size":353842031,"categoryP":"video","categoryS":"hd___tv_shows","magnet":"?xt=urn:btih:eb276d8040c3ec81cb0bff726234c98c6e167822&amp;dn=Angie+Tribeca+S02E09+1080p+WEB-DL+HEVC+DD5.1+x265&amp;tr=udp%3A%2F%2Ftracker.leechers-paradise.org%3A6969&amp;tr=udp%3A%2F%2Fzer0day.ch%3A1337&amp;tr=udp%3A%2F%2Fopen.demonii.com%3A1337&amp;tr=udp%3A%2F%2Ftracker.coppersurfer.tk%3A6969&amp;tr=udp%3A%2F%2Fexodus.desync.com%3A6969","seeders":0,"leechers":2,"uploader":"nayhtut","files":1,"time":1470437788,"description":"[Screenshots]\r\n \nhttps://s32.postimg.org/4xobxy5xx/Angie_Tribeca_S02_E09_1080p_WEB_DL_HEVC_DD5_1_x26.jpg \nhttps://s32.postimg.org/tscf5rg5x/Angie_Tribeca_S02_E09_1080p_WEB_DL_HEVC_DD5_1_x26.jpg \nhttps://s32.postimg.org/nfx9vxd3p/Angie_Tribeca_S02_E09_1080p_WEB_DL_HEVC_DD5_1_x26.jpg\r\n\r\n   \r\nSource: Angie Tribeca S02E09 1080p WEB-DL DD5 1 H264-NTb (838 MB)\r\n\r\n\r\n__--__--__--__--__--__--__--__--__--__--__--__--__--\r\n\r\n\r\nComplete name                            : Angie.Tribeca.S02E09.1080p.WEB-DL.HEVC.DD5.1.x265.mkv\r\nFormat                                   : Matroska\r\nFormat version                           : Version 4 / Version 2\r\nFile size                                : 337 MiB\r\nDuration                                 : 20mn 53s\r\nOverall bit rate                         : 2 257 Kbps\r\nWriting application                      : Lavf57.25.100\r\nWriting library                          : Lavf57.25.100\r\n\r\nVideo\r\n\r\nID                                       : 1\r\nFormat                                   : V_MPEGH/ISO/HEVC\r\nCodec ID                                 : V_MPEGH/ISO/HEVC\r\nDuration                                 : 20mn 53s\r\nBit rate                                 : 1 829 Kbps\r\nWidth                                    : 1 920 pixels\r\nHeight                                   : 1 080 pixels\r\nDisplay aspect ratio                     : 16:9\r\nFrame rate                               : 25.000 fps\r\nBits/(Pixel*Frame)                       : 0.035\r\nStream size                              : 273 MiB (81%)\r\nWriting library                          : Lavc57.48.101 libx265\r\nLanguage                                 : English\r\nDefault                                  : Yes\r\nForced                                   : No\r\nDURATION                                 : 00:20:53.931000000\r\nNUMBER_OF_FRAMES                         : 30063\r\nNUMBER_OF_BYTES                          : 818033954\r\n_STATISTICS_WRITING_APP                  : mkvmerge v8.3.0 ('Over the Horizon') 64bit\r\n_STATISTICS_WRITING_DATE_UTC             : 2016-08-04 06:54:42\r\n_STATISTICS_TAGS                         : BPS DURATION NUMBER_OF_FRAMES NUMBER_OF_BYTES\r\n\r\nAudio\r\n\r\nID                                       : 2\r\nFormat                                   : AC-3\r\nFormat/Info                              : Audio Coding 3\r\nMode extension                           : CM (complete main)\r\nFormat settings, Endianness              : Big\r\nCodec ID                                 : A_AC3\r\nDuration                                 : 20mn 53s\r\nBit rate mode                            : Constant\r\nBit rate                                 : 384 Kbps\r\nChannel(s)                               : 6 channels\r\nChannel positions                        : Front: L C R, Side: L R, LFE\r\nSampling rate                            : 48.0 KHz\r\nBit depth                                : 16 bits\r\nCompression mode                         : Lossy\r\nStream size                              : 57.4 MiB (17%)\r\nWriting library                          : Lavc57.24.102 ac3\r\nLanguage                                 : English\r\nDefault                                  : Yes\r\nForced                                   : No\r\nDURATION                                 : 00:20:53.951000000\r\nNUMBER_OF_FRAMES                         : 39183\r\nNUMBER_OF_BYTES                          : 60185088\r\n_STATISTICS_WRITING_APP                  : mkvmerge v8.3.0 ('Over the Horizon') 64bit\r\n_STATISTICS_WRITING_DATE_UTC             : 2016-08-04 06:54:42\r\n_STATISTICS_TAGS                         : BPS DURATION NUMBER_OF_FRAMES NUMBER_OF_BYTES\r\n\r\nText\r\n\r\nID                                       : 3\r\nFormat                                   : ASS\r\nCodec ID                                 : S_TEXT/ASS\r\nCodec ID/Info                            : Advanced Sub Station Alpha\r\nCompression mode                         : Lossless\r\nWriting library                          : Lavc57.48.101 ssa\r\nLanguage                                 : English\r\nDefault                                  : Yes\r\nForced                                   : No\r\nDURATION                                 : 00:20:26.308000000\r\nNUMBER_OF_FRAMES                         : 427\r\nNUMBER_OF_BYTES                          : 13682\r\n_STATISTICS_WRITING_APP                  : mkvmerge v8.3.0 ('Over the Horizon') 64bit\r\n_STATISTICS_WRITING_DATE_UTC             : 2016-08-04 06:54:42\r\n_STATISTICS_TAGS                         : BPS DURATION NUMBER_OF_FRAMES NUMBER_OF_BYTES\r\n\r\n\r\n__--__--__--__--__--__--__--__--__--__--__--__--__--\r\n\r\n\r\nIMDb: http://www.imdb.com/title/tt3597790\r\n\r\nAfter adding torrent with magnet link,\r\n\r\nplease add this  following trackers list to the torrent for better seeds.\r\n\r\n\r\nudp://tracker.coppersurfer.tk:6969/announce\r\n\r\nudp://tracker.opentrackr.org:1337/announce\r\n \nhttp://tracker.baravik.org:6970/announce\r\n \nhttp://tracker2.wasabii.com.tw:6969/announce\r\n\r\nudp://9.rarbg.me:2710/announce\r\n\r\n\r\n__--__--__--__--__--__--__--__--__--__--__--__--__--\r\n\r\n\r\nEnjoy!","torrent":{"xt":"urn:btih:eb276d8040c3ec81cb0bff726234c98c6e167822","amp;dn":"Angie+Tribeca+S02E09+1080p+WEB-DL+HEVC+DD5.1+x265","amp;tr":["udp%3A%2F%2Ftracker.leechers-paradise.org%3A6969","udp%3A%2F%2Fzer0day.ch%3A1337","udp%3A%2F%2Fopen.demonii.com%3A1337","udp%3A%2F%2Ftracker.coppersurfer.tk%3A6969","udp%3A%2F%2Fexodus.desync.com%3A6969"],"infoHash":"eb276d8040c3ec81cb0bff726234c98c6e167822","infoHashBuffer":{"type":"Buffer","data":[235,39,109,128,64,195,236,129,203,11,255,114,98,52,201,140,110,22,120,34]},"announce":[],"urlList":[]}}